# xmcd
#
# Track frame offsets:
#	150
#	13870
#	28600
#	41280
#	57675
#	73205
#	85333
#	101270
#	117023
#	133863
#	149275
#	165758
#	181040
#	197515
#
# Disc length: 2851 seconds
#
# Revision: 1
# Processed by: cddbd v1.5.2PL0 Copyright (c) Steve Scherf et al.
# Submitted via: audiograbber 1.83.01
#
DISCID=b60b210e
DTITLE=Various Artist - Spotlight On Hits - Country Vol 21
DYEAR=1900
DGENRE=Country
TTITLE0=Vince Gill - What The Cowgirls Do
TTITLE1=Rick Trevino - She Can't Say I Didn't Cry
TTITLE2=Joe Diffie - Third Rock From The Sun
TTITLE3=Billy Dean - Cowboy Band
TTITLE4=Shenandoah - I'll Go Down Loving You
TTITLE5=Patty Loveless - I Try To Think About Elvis
TTITLE6=Toby Keith - Who's That Man
TTITLE7=Terry McBride and The Ride - Been There
TTITLE8=Kathy Mattea - Nobody's Gonna Rain On Our Parade
TTITLE9=Brother Phelps - Ever Changing Woman
TTITLE10=Rodney Crowell - Big Heart
TTITLE11=Collin Raye - Man Of My Word
TTITLE12=Doug Supernaw - State Fair
TTITLE13=Blackhawk - Sure Can Smell The Rain
EXTD=
EXTT0=
EXTT1=
EXTT2=
EXTT3=
EXTT4=
EXTT5=
EXTT6=
EXTT7=
EXTT8=
EXTT9=
EXTT10=
EXTT11=
EXTT12=
EXTT13=
PLAYORDER=
